<svg width="63" height="63" viewBox="0 0 63 63" fill="none" xmlns="http://www.w3.org/2000/svg">
<path d="M31.5 15.75C28.414 15.7449 25.3952 16.6508 22.8218 18.354H31.5V20.979H19.7794C18.383 22.5317 17.3095 24.3467 16.6215 26.3183H31.5V28.9433H15.9574C15.6783 30.6524 15.6809 32.3957 15.9653 34.104H31.5V36.729H16.6399C17.3303 38.6925 18.3986 40.4801 19.761 42H31.5V44.625H22.7903C24.8378 45.9832 27.1746 46.8435 29.614 47.1371C32.0534 47.4308 34.5276 47.1497 36.839 46.3162C39.1503 45.4828 41.2346 44.1202 42.9252 42.3373C44.6158 40.5544 45.8658 38.4007 46.5754 36.0484C47.2849 33.6961 47.4343 31.2104 47.0115 28.79C46.5888 26.3697 45.6056 24.0818 44.1406 22.1093C42.6757 20.1368 40.7696 18.5344 38.5747 17.4302C36.3798 16.326 33.957 15.7506 31.5 15.75Z" fill="white"/>
<path fill-rule="evenodd" clip-rule="evenodd" d="M5.25 31.5C5.25 17.0021 17.0021 5.25 31.5 5.25C45.9979 5.25 57.75 17.0021 57.75 31.5C57.75 45.9979 45.9979 57.75 31.5 57.75C17.0021 57.75 5.25 45.9979 5.25 31.5ZM31.5 52.5C25.9305 52.5 20.589 50.2875 16.6508 46.3492C12.7125 42.411 10.5 37.0695 10.5 31.5C10.5 25.9305 12.7125 20.589 16.6508 16.6508C20.589 12.7125 25.9305 10.5 31.5 10.5C37.0695 10.5 42.411 12.7125 46.3492 16.6508C50.2875 20.589 52.5 25.9305 52.5 31.5C52.5 37.0695 50.2875 42.411 46.3492 46.3492C42.411 50.2875 37.0695 52.5 31.5 52.5Z" fill="white"/>
</svg>
